<?xml version="1.0" encoding="UTF-8" standalone="no"?>
<!DOCTYPE svg PUBLIC "-//W3C//DTD SVG 1.1//EN" "http://www.w3.org/Graphics/SVG/1.1/DTD/svg11.dtd">
<svg version="1.1" xmlns="http://www.w3.org/2000/svg" xmlns:xlink="http://www.w3.org/1999/xlink" preserveAspectRatio="xMidYMid meet" viewBox="0 0 640 640" width="640" height="640"><defs><path d="M83.69 85.5L124.68 85.5L124.68 134.93L83.69 134.93L83.69 85.5Z" id="avAGqTwvJ"></path><path d="M309.15 63.79L341.7 63.79L341.7 116.84L309.15 116.84L309.15 63.79Z" id="b237dsmpGL"></path><path d="M131.91 280.82L218.72 280.82L218.72 371.24L131.91 371.24L131.91 280.82Z" id="bGzHluD1A"></path><path d="M376.67 203.65L446.6 203.65L446.6 277.2L376.67 277.2L376.67 203.65Z" id="k74NtQQvKe"></path><path d="M320 353.16L338.09 353.16L338.09 526.77L320 526.77L320 353.16Z" id="e2jLNCaiOh"></path><path d="M493.62 50.53L597.3 50.53L597.3 250.67L493.62 250.67L493.62 50.53Z" id="a1aATHzkj9"></path></defs><g><g><g><use xlink:href="#avAGqTwvJ" opacity="1" fill="#e87a15" fill-opacity="1"></use></g><g><use xlink:href="#b237dsmpGL" opacity="1" fill="#26e56f" fill-opacity="1"></use></g><g><use xlink:href="#bGzHluD1A" opacity="1" fill="#141ab9" fill-opacity="1"></use></g><g><use xlink:href="#k74NtQQvKe" opacity="1" fill="#fba779" fill-opacity="1"></use></g><g><use xlink:href="#e2jLNCaiOh" opacity="1" fill="#97df77" fill-opacity="1"></use></g><g><use xlink:href="#a1aATHzkj9" opacity="1" fill="#71fa4f" fill-opacity="1"></use></g></g></g></svg>