<?xml version="1.0" encoding="UTF-8" standalone="no"?>
<!DOCTYPE svg PUBLIC "-//W3C//DTD SVG 1.1//EN" "http://www.w3.org/Graphics/SVG/1.1/DTD/svg11.dtd">
<svg version="1.1" xmlns="http://www.w3.org/2000/svg" xmlns:xlink="http://www.w3.org/1999/xlink" preserveAspectRatio="xMidYMid meet" viewBox="0 0 640 640" width="640" height="640"><defs><path d="M74.04 130.71L145.18 130.71L145.18 135.53L74.04 135.53L74.04 130.71Z" id="a82IOz3Xd"></path><path d="M473.12 81.28L537.02 81.28L537.02 217.52L473.12 217.52L473.12 81.28Z" id="ccJh9meUw"></path><path d="M129.5 244.04L184.96 244.04L184.96 295.89L129.5 295.89L129.5 244.04Z" id="csNMVhfaU"></path><path d="M277.8 149.4L346.52 149.4L346.52 187.38L277.8 187.38L277.8 149.4Z" id="a2dHrpAo2"></path><path d="M332.06 279.01L405.6 279.01L405.6 354.96L332.06 354.96L332.06 279.01Z" id="e213If99m7"></path><path d="M455.04 391.13L493.62 391.13L493.62 532.2L455.04 532.2L455.04 391.13Z" id="bn4zFdSpT"></path><path d="M65.6 421.28L234.4 421.28L234.4 465.89L65.6 465.89L65.6 421.28Z" id="g22aBxwdAm"></path><path d="M105.39 522.55L184.96 522.55L184.96 596.1L105.39 596.1L105.39 522.55Z" id="b1qDpsQpAD"></path><path d="M288.65 438.16L405.6 438.16L405.6 578.01L288.65 578.01L288.65 438.16Z" id="gOI6M8vlk"></path><path d="M105.39 522.55L184.96 522.55L184.96 596.1L105.39 596.1L105.39 522.55Z" id="a2smOoCW2"></path></defs><g><g><g><use xlink:href="#a82IOz3Xd" opacity="1" fill="#c03c94" fill-opacity="1"></use></g><g><use xlink:href="#ccJh9meUw" opacity="1" fill="#d6ae13" fill-opacity="1"></use></g><g><use xlink:href="#csNMVhfaU" opacity="1" fill="#0a3c66" fill-opacity="1"></use></g><g><use xlink:href="#a2dHrpAo2" opacity="1" fill="#d0bb52" fill-opacity="1"></use></g><g><use xlink:href="#e213If99m7" opacity="1" fill="#490abe" fill-opacity="1"></use></g><g><use xlink:href="#bn4zFdSpT" opacity="1" fill="#4e4054" fill-opacity="1"></use></g><g><use xlink:href="#g22aBxwdAm" opacity="1" fill="#c96eeb" fill-opacity="1"></use></g><g><use xlink:href="#b1qDpsQpAD" opacity="1" fill="#5cd820" fill-opacity="1"></use></g><g><use xlink:href="#gOI6M8vlk" opacity="1" fill="#bc5157" fill-opacity="1"></use></g><g><use xlink:href="#a2smOoCW2" opacity="1" fill="#5cd820" fill-opacity="1"></use></g></g></g></svg>